<?xml version="1.0" encoding="UTF-8" standalone="no"?>
<!-- Created with Inkscape (http://www.inkscape.org/) -->

<svg
   viewBox="0 0 95.25 95.25"
   version="1.1"
   id="svg5"
   inkscape:version="1.1.1 (3bf5ae0d25, 2021-09-20)"
   sodipodi:docname="tile_5.svg"
   xmlns:inkscape="http://www.inkscape.org/namespaces/inkscape"
   xmlns:sodipodi="http://sodipodi.sourceforge.net/DTD/sodipodi-0.dtd"
   xmlns:xlink="http://www.w3.org/1999/xlink"
   xmlns="http://www.w3.org/2000/svg"
   xmlns:svg="http://www.w3.org/2000/svg">
  <defs
     id="defs2" />
  <g
     inkscape:label="Layer 1"
     inkscape:groupmode="layer"
     id="layer1"
     transform="translate(-15.889607,45.537004)"
     style="display:inline" />
  <g
     id="g148">
    <path
       style="fill:#d0eefa;stroke-width:0.264583"
       d="M 0,47.625 V 0 H 47.625 95.25 V 47.625 95.25 H 47.625 0 Z"
       id="path178" />
    <path
       style="fill:#aee4f7;stroke-width:0.264583"
       d="M 0,91.561449 V 87.872895 L 0.33072917,87.665068 0.66145833,87.45724 3.571875,86.179798 l 2.9104167,-1.27744 0.396875,-0.02215 0.396875,-0.02215 2.2489583,0.303647 2.248958,0.303649 0.795247,0.12968 0.795246,0.12968 0.313389,0.727742 0.313389,0.727744 0.386849,1.058334 0.386849,1.058333 0.124475,0.396875 0.124475,0.396875 0.05619,0.264583 0.05619,0.264584 0.227238,0.273806 0.227239,0.273804 0.676303,1.874872 0.676304,1.874872 V 95.083574 95.25 H 8.4666667 0 Z m 24.355731,2.299489 0.535509,-1.389063 1.408459,-1.322917 1.408457,-1.322916 0.292484,-2.116667 0.292483,-2.116667 0.163285,-2.728092 0.163285,-2.72809 -1.146825,0.153739 -1.146826,0.153739 -1.058334,0.13652 -1.058333,0.136519 -1.667941,0.306401 -1.66794,0.306403 -0.778835,-0.911277 -0.778834,-0.911278 -6.09e-4,-0.322583 -6.33e-4,-0.32258 -0.49909,-1.000337 -0.499091,-1.000334 -0.722583,-1.521354 -0.722584,-1.521354 h -0.178658 -0.178659 l -0.318443,-1.190625 -0.318444,-1.190625 -0.331745,-0.004 -0.331744,-0.0041 0.396875,-0.256479 0.396875,-0.256479 -0.447406,-0.0041 -0.447406,-0.0041 -0.163522,0.264584 -0.163521,0.264583 -0.447406,-0.0186 -0.447406,-0.0186 0.511605,-0.200346 0.511604,-0.200345 -0.247021,-0.144896 -0.247021,-0.144894 -1.5875,-0.224509 -1.5875,-0.22451 -0.529167,-0.02445 -0.529167,-0.02445 L 9.4172386,69.88937 8.6480192,69.566835 7.4328636,69.439372 6.2177083,69.311946 3.1088542,68.740322 0,68.168697 V 34.08435 0 h 12.403855 12.403854 l 2.559849,0.9266273 2.559849,0.9266273 0.977442,0.5172246 0.977443,0.5172246 3.96875,1.5200209 3.96875,1.5200207 0.499538,0.082748 0.499539,0.082749 1.617128,0.7686776 1.617128,0.7686775 1.358752,0.5133901 1.358754,0.5133898 1.419371,-0.6539992 1.419373,-0.6539994 2.048581,-0.7569026 2.048582,-0.7569025 0.597252,-0.3859837 0.597252,-0.3859837 3.175,-1.2363423 3.175,-1.2363422 L 61.383333,2.4080703 61.515625,2.2252187 63.295078,1.1126093 65.07453,0 H 80.162265 95.25 v 40.124859 40.124859 l -0.463021,-0.54737 -0.463021,-0.54737 -0.440589,-0.528275 -0.44059,-0.528273 -0.995727,-1.333735 -0.995725,-1.333738 -0.680352,0.514143 -0.68035,0.514141 -3.175,2.312329 -3.175,2.312329 0.458428,0.09011 0.458425,0.09011 4.977971,-0.41539 4.977969,-0.415391 H 94.931709 95.25 V 87.841667 95.25 H 59.53511 23.820222 Z M 4.4979167,84.263743 3.0427083,83.919438 1.5160466,83.611733 -0.01061508,83.304031 0.06083829,77.833786 0.13229167,72.363542 H 0.396875 0.66145833 l 1.51392887,2.910416 1.5139289,2.910417 1.5949253,3.09889 1.5949253,3.09889 v 0.142256 0.142256 L 6.4161458,84.637359 5.953125,84.608048 Z m 5.1620422,-9.920142 0.1661891,-0.268898 0.246301,0.152222 0.246301,0.15222 V 74.495824 74.6125 H 9.9062601 9.4937702 Z m 5.2889991,-2.376934 -0.163521,-0.264584 h 0.280198 0.280198 v 0.264584 0.264583 H 15.229157 15.11248 Z m -2.310222,-0.838319 0.279545,-0.279546 0.347057,0.115686 0.347056,0.115684 -0.626602,0.163862 -0.626602,0.163859 z m -1.840429,-0.136171 0.347266,-0.138964 0.159852,0.15985 0.159853,0.159854 -0.507118,-0.0209 -0.507118,-0.02088 0.347265,-0.138964 z"
       id="path176" />
    <path
       style="fill:#b4c8d5;stroke-width:0.264583"
       d="m 5.9091806,94.257812 0.1559793,-0.992187 0.4357952,-3.704167 0.4357952,-3.704166 0.2146303,-0.230193 0.2146302,-0.230193 0.8282692,2.743735 0.8282688,2.743734 0.6481006,2.066859 0.6481006,2.066859 V 95.134046 95.25 H 8.0359758 5.7532016 Z m 18.4435764,0.529167 0.01109,-0.463021 0.484041,-0.908849 0.484041,-0.908851 0.563202,1.273212 0.563203,1.273214 v 0.09866 0.09866 H 25.4 24.341667 l 0.01109,-0.463021 z m 3.428493,-0.321421 v -0.784439 l -0.595312,-0.307893 -0.595313,-0.307891 -0.469274,-0.409543 -0.469274,-0.40954 0.336982,-0.213866 0.336983,-0.213865 0.562917,-0.004 0.562914,-0.004 0.270081,-0.33073 0.270079,-0.330729 0.458131,-5.499846 0.458132,-5.499843 -0.135366,-0.135366 -0.135367,-0.135367 -3.272427,0.424217 -3.272428,0.424218 -0.595312,0.146446 -0.595313,0.14645 V 80.603564 80.18725 l 0.381661,-1.133724 0.381661,-1.133734 0.798655,-2.766386 0.798654,-2.766385 L 23.119947,72.24299 22.97718,72.098958 16.449528,70.992868 9.921875,69.886774 4.9609375,69.033856 0,68.180937 V 34.090467 0 h 12.445391 12.445391 l 2.437422,0.94094112 2.437421,0.94094108 1.058333,0.4926244 1.058334,0.4926242 1.852083,0.7028757 1.852083,0.7028757 2.778125,1.1585093 2.778125,1.1585096 2.812685,1.0783885 2.812685,1.0783888 2.048992,-0.9337559 2.048994,-0.9337558 h 0.225748 0.225747 L 53.241594,5.9829769 55.165625,5.0867871 57.15,4.2372391 59.134375,3.3876914 60.115154,3.0325248 61.09593,2.6773582 63.079765,1.338679 65.063603,0 H 80.156801 95.25 v 36.327292 36.327291 l -0.287488,0.287489 -0.287491,0.287491 0.310504,2.477404 0.310502,2.477408 -0.08916,0.883124 -0.08916,0.883126 -1.395682,-1.840296 -1.395682,-1.840296 -0.460608,-0.416844 -0.460605,-0.416843 -1.318713,1.005488 -1.31871,1.005491 -2.778125,2.051479 -2.778125,2.051478 1.719792,-0.157276 1.719792,-0.157276 3.836458,-0.276558 3.836458,-0.276559 0.463021,-0.09987 L 95.25,80.482874 V 87.866437 95.25 H 61.515625 27.78125 Z"
       id="path174" />
    <path
       style="fill:#8ad5f1;stroke-width:0.264583"
       d="m 5.9091806,94.257812 0.1559793,-0.992187 0.4357952,-3.704167 0.4357952,-3.704166 0.2146303,-0.230193 0.2146302,-0.230193 0.8282692,2.743735 0.8282688,2.743734 0.6481006,2.066859 0.6481006,2.066859 V 95.134046 95.25 H 8.0359758 5.7532016 Z m 18.4435764,0.529167 0.01109,-0.463021 0.484041,-0.908849 0.484041,-0.908851 0.563202,1.273212 0.563203,1.273214 v 0.09866 0.09866 H 25.4 24.341667 l 0.01109,-0.463021 z m 3.428493,-0.321421 v -0.784439 l -0.595312,-0.307893 -0.595313,-0.307891 -0.469274,-0.409543 -0.469274,-0.40954 0.336982,-0.213866 0.336983,-0.213865 0.562917,-0.004 0.562914,-0.004 0.270081,-0.33073 0.270079,-0.330729 0.458131,-5.499846 0.458132,-5.499843 -0.135366,-0.135366 -0.135367,-0.135367 -3.272427,0.424217 -3.272428,0.424218 -0.595312,0.146446 -0.595313,0.14645 V 80.603564 80.18725 l 0.381661,-1.133724 0.381661,-1.133726 0.796196,-2.757903 0.796196,-2.757906 -0.107724,-0.174299 -0.107724,-0.174303 -2.326904,-0.33134 -2.326903,-0.33134 -2.910417,-0.628518 -2.910417,-0.628515 -1.434598,-0.155361 -1.4345984,-0.155363 -0.207492,-0.128236 -0.2074921,-0.128238 0.1272873,-0.331705 0.1272871,-0.331706 -0.4695716,-0.0055 -0.469572,-0.0055 -0.79375,-0.191494 -0.79375,-0.191493 0.396875,0.268568 0.396875,0.268568 0.4630209,0.004 0.4630208,0.004 v 0.282414 0.282413 L 8.2682292,69.490706 7.8052083,69.360338 6.8791667,69.157892 5.953125,68.955444 5.7272878,69.01498 5.5014503,69.074517 4.9996836,68.915261 4.4979167,68.756006 v -0.360574 -0.360577 l 0.858149,0.246116 0.8581491,0.246112 0.1340384,-0.02148 0.1340385,-0.02148 -0.79375,-0.377576 -0.79375,-0.377574 1.0583333,0.118036 1.0583333,0.118039 -0.2839574,-0.122307 -0.2839575,-0.122306 0.1155502,-0.787292 0.1155499,-0.787291 h 1.9543448 l 1.9543447,-1.1e-5 -0.0041,-0.198437 -0.0041,-0.198438 -0.25648,-0.396875 -0.25648,-0.396875 -0.0041,0.33073 -0.0041,0.330729 H 9.2415177 8.4288691 L 7.9847469,65.168449 7.540625,64.720235 7.9777368,64.88562 8.4148486,65.051009 9.2295197,64.155743 10.044191,63.260481 9.7802798,63.097376 9.5163682,62.934268 l 0.1522225,-0.246301 0.1522225,-0.2463 h 0.2645828 0.264584 l -0.163522,0.264583 -0.163521,0.264583 h 0.308506 0.308505 l -0.16956,-0.441867 -0.169561,-0.441867 0.301684,-0.186452 0.301683,-0.18645 L 9.6192848,61.418727 8.334375,61.123259 6.2838274,61.032784 4.2332799,60.942307 4.0569176,60.765947 3.8805556,60.589583 H 3.1309027 2.38125 V 60.336988 60.084396 L 1.3890625,59.886543 0.396875,59.688693 0.1984375,59.742263 0,59.795833 V 29.897917 0 h 12.445391 12.445391 l 2.437422,0.94094112 2.437421,0.94094108 1.058333,0.4926244 1.058334,0.4926242 1.852083,0.7028757 1.852083,0.7028757 2.778125,1.1585093 2.778125,1.1585096 2.812685,1.0783885 2.812685,1.0783888 2.048992,-0.9337559 2.048994,-0.9337558 h 0.225748 0.225747 L 53.241594,5.9829769 55.165625,5.0867871 57.15,4.2372391 59.134375,3.3876914 60.115154,3.0325248 61.09593,2.6773582 63.079765,1.338679 65.063603,0 H 80.156801 95.25 v 26.289114 26.289114 l -0.16742,1.221456 -0.167418,1.22146 -0.163312,-0.06602 -0.163308,-0.06601 -0.926042,0.904555 -0.926042,0.904558 0.595313,-0.188818 0.595312,-0.18882 v 0.267412 0.267409 l -0.588039,0.41188 -0.588036,0.411877 h 0.341283 0.341286 l -0.167952,0.529166 -0.167952,0.529167 h 0.167775 0.167775 L 94.341611,58.044638 95.25,57.351777 v 0.987475 0.987475 l -0.797198,-0.117004 -0.797194,-0.117004 0.171942,0.549995 0.171942,0.549994 0.625253,0.747906 0.625255,0.747903 v 5.483034 5.483032 l -0.287488,0.287489 -0.287491,0.287491 0.310504,2.477404 0.310502,2.477408 -0.08916,0.879822 -0.08916,0.879821 L 94.059374,78.541679 93.001041,77.13934 91.443111,75.412899 89.885183,73.686458 88.14011,71.4375 86.39504,69.188542 86.072651,68.851545 85.750261,68.514547 84.507974,66.933315 83.265689,65.352083 H 82.969264 82.672838 L 81.699415,66.013542 80.725992,66.675 h -0.125463 -0.125463 l -2.203677,1.282957 -2.203681,1.282956 -2.248958,1.372854 -2.248958,1.372855 -3.155088,2.305126 -3.155087,2.305127 -2.401163,1.7687 -2.401162,1.7687 -1.399003,1.009425 -1.399003,1.009425 -0.849956,0.733028 -0.849955,0.733028 0.79375,-0.116935 0.79375,-0.116933 2.248958,-0.16221 2.248959,-0.162211 2.778125,-0.251013 2.778125,-0.25101 3.704166,-0.276291 3.704167,-0.276291 3.042708,-0.256101 3.042709,-0.256101 2.778125,-0.113916 2.778125,-0.113914 3.836458,-0.29182 3.836458,-0.291822 0.463021,-0.09987 L 95.25,80.482874 V 87.866437 95.25 H 61.515625 27.78125 Z m -12.771658,-24.246245 -0.159852,-0.15985 -0.347266,0.138964 -0.347266,0.138965 0.507118,0.02088 0.507118,0.0209 -0.159852,-0.159853 z m -1.09198,-1.356561 -0.159279,-0.159279 v 0.308679 0.308681 H 13.3306 12.902866 l 0.123126,-0.470834 0.123125,-0.470834 -0.345683,-0.322916 -0.345683,-0.322916 h -0.143459 -0.143459 v 0.95435 0.954349 l 0.406891,-0.156138 0.40689,-0.156139 0.15516,0.404339 0.155159,0.404339 0.390979,-0.558202 0.390979,-0.558202 z M 9.1942708,68.344698 8.73125,68.223699 8.2682292,68.344698 7.8052083,68.4657 H 8.73125 9.6572917 Z M 10.186458,67.997917 10.34998,67.733333 H 10.069782 9.7895833 v 0.264584 0.264583 h 0.1166768 0.1166769 z m 2.998354,-0.807257 -0.281411,-0.807255 -0.114577,0.114576 -0.114577,0.114577 0.173851,0.69268 0.173851,0.692679 h 0.222137 0.222137 z m -1.40488,-2.844459 -0.138265,-0.360312 V 63.47836 62.970833 H 11.361468 11.08127 l 0.19131,0.309547 0.19131,0.309547 -0.440278,-0.168953 -0.440279,-0.168949 v 0.782481 0.782484 l 0.667432,-0.05524 0.667431,-0.05524 z"
       id="path172" />
    <path
       style="fill:#7bd3f1;stroke-width:0.264583"
       d="m 27.91886,94.994021 -0.158205,-0.255982 0.157231,-1.926831 0.157234,-1.926833 0.236215,-2.645833 0.236214,-2.645834 0.157441,-2.645833 0.15744,-2.645833 0.258694,-2.38125 0.258696,-2.38125 0.137367,-1.087123 0.137366,-1.087123 L 28.519464,73.05929 27.384375,72.754284 22.225,71.952673 17.065625,71.151062 14.948958,70.656289 12.832292,70.161512 11.273188,69.998042 9.7140847,69.834569 9.498806,69.701518 9.2835275,69.56847 l 0.1272873,-0.331705 0.1272871,-0.331706 -0.4695716,-0.0055 -0.469572,-0.0055 -0.79375,-0.191495 -0.79375,-0.191492 0.396875,0.268567 0.396875,0.268568 0.4630209,0.004 0.4630208,0.0041 v 0.282414 0.282413 L 8.2682292,69.490706 7.8052083,69.360338 6.8791667,69.157892 5.953125,68.955444 5.7272878,69.01498 5.5014503,69.074517 4.9996836,68.915261 4.4979167,68.756006 v -0.360574 -0.360577 l 0.858149,0.246116 0.8581491,0.246112 0.1340384,-0.02148 0.1340385,-0.02148 -0.79375,-0.377576 -0.79375,-0.377574 1.0583333,0.118036 1.0583333,0.118039 -0.2839574,-0.122307 -0.2839575,-0.122306 0.1155502,-0.787292 0.1155499,-0.787291 h 1.9543448 l 1.9543447,-1.1e-5 -0.0041,-0.198437 -0.0041,-0.198438 -0.25648,-0.396875 -0.25648,-0.396875 -0.0041,0.33073 -0.0041,0.330729 H 9.2415177 8.4288691 L 7.9847469,65.168449 7.540625,64.720235 7.9777368,64.88562 8.4148486,65.051009 9.2295197,64.155743 10.044191,63.260481 9.7802798,63.097376 9.5163682,62.934268 l 0.1522225,-0.246301 0.1522225,-0.2463 h 0.2645828 0.264584 l -0.163522,0.264583 -0.163521,0.264583 h 0.298028 0.298028 l -0.165154,-0.520353 -0.165154,-0.520353 0.742637,-0.187299 0.742636,-0.187299 -0.79375,-0.221869 -0.79375,-0.221869 -0.5790972,0.136742 -0.5790972,0.136742 -0.1443265,-0.233524 -0.1443263,-0.233526 -1.2609512,0.103555 -1.2609513,0.103558 0.5291667,-0.249282 0.5291667,-0.24928 -0.447406,-0.0186 -0.4474059,-0.0186 -0.155294,0.251273 L 6.0706415,61.092117 5.1436926,61.00894 4.2167434,60.925763 4.0486497,60.75767 3.8805556,60.589583 H 3.226217 2.5718784 L 2.2781267,60.195182 1.984375,59.800781 0.99271791,59.732161 0.00106084,59.663542 5.3042344e-4,29.831771 0,0 H 12.371465 24.74293 l 3.040513,1.215064 3.040515,1.2150639 1.5875,0.6146937 1.5875,0.6146937 5.159375,2.1014984 5.159375,2.1014981 1.215224,0.4544473 1.21522,0.4544475 L 51.75064,6.6059733 56.753125,4.4405399 59.002083,3.5189409 61.251042,2.5973418 63.208501,1.2986709 65.165957,0 h 15.04564 15.045637 l -0.02988,26.524479 -0.02988,26.524479 -0.134729,0.990066 -0.134728,0.990065 -0.235884,-0.145785 -0.235884,-0.145783 v 0.295812 0.295812 l -0.305464,-0.188785 -0.305464,-0.188788 0.174535,0.282403 0.174535,0.282403 -0.728967,0.565938 -0.728967,0.565936 0.595313,-0.16383 0.595312,-0.163833 v 0.267412 0.267409 l -0.588039,0.41188 -0.588036,0.411877 h 0.341283 0.341286 l -0.167952,0.529166 -0.167952,0.529167 h 0.167775 0.167775 L 94.341611,58.044638 95.25,57.351777 v 0.987475 0.987475 l -0.797198,-0.117004 -0.797194,-0.117004 0.171942,0.549995 0.171942,0.549994 0.625253,0.747906 0.625255,0.747903 v 5.390026 5.390028 l -0.661458,0.713724 -0.661459,0.713727 v 0.241562 0.241561 l 0.264584,-0.16352 0.264583,-0.16352 0.02998,0.610925 0.02997,0.610928 -0.0092,0.869707 -0.0092,0.869707 0.374465,0.717793 0.374464,0.717793 0.0016,0.198438 0.0016,0.198437 h -0.264583 -0.264583 v -0.388572 -0.38857 l -0.33073,0.122984 -0.330729,0.122983 -0.501589,-1.049107 -0.501586,-1.04911 -0.178822,0.110519 -0.178818,0.110517 -0.422336,-0.493252 -0.422336,-0.493252 0.168638,-0.168638 0.168637,-0.168637 -0.42328,0.162427 -0.423278,0.162428 -2.176868,-2.728129 -2.176867,-2.728132 -0.440603,-0.529167 -0.440605,-0.529167 -1.430433,-1.785937 -1.430435,-1.785938 H 82.960731 82.672753 L 81.69933,66.013542 80.725907,66.675 h -0.125463 -0.125463 l -2.203677,1.282181 -2.20368,1.282182 -2.513542,1.528813 -2.513542,1.528812 -0.595312,0.54242 -0.595313,0.542417 v -0.16578 -0.165777 l -0.659185,0.610912 -0.659186,0.610912 -2.317377,1.62423 -2.317377,1.624229 -0.898683,0.728787 -0.898684,0.728787 -1.74715,1.257483 -1.747149,1.257485 -0.661459,0.459875 -0.661458,0.459875 -0.661458,0.604483 -0.661459,0.604485 0.926042,-0.131424 0.926042,-0.131426 3.571875,-0.283766 3.571875,-0.283765 3.175,-0.253133 3.175,-0.253134 3.571875,-0.281538 3.571875,-0.281538 2.440379,-0.187238 2.440381,-0.187237 -0.803063,0.733485 -0.803066,0.733486 -0.182107,0.0042 -0.182108,0.0042 -0.926041,0.786696 -0.926042,0.786699 -0.279024,0.201263 -0.279025,0.201264 -0.409194,0.264583 -0.409194,0.264583 -2.029692,1.447377 -2.029691,1.447377 0.124749,0.325085 0.124746,0.325086 -0.332706,-0.12767 -0.332708,-0.127672 -0.646004,0.533117 -0.646007,0.533117 -0.281249,0.233696 -0.281247,0.233699 -0.598676,0.320399 -0.598675,0.320403 -0.442992,0.402878 -0.442994,0.402879 -1.397344,1.018561 -1.397342,1.018564 0.603592,0.332533 0.603594,0.332537 0.500123,-0.07713 0.500121,-0.07713 -0.154763,0.403307 -0.154763,0.403307 0.580681,0.112744 0.580684,0.112747 -20.952613,0.03603 L 28.077062,95.25 Z M 93.6625,75.40625 v -0.264583 h -0.388572 -0.38857 l 0.173527,-0.463021 0.173524,-0.463021 -0.435242,0.353854 -0.435242,0.353856 0.319558,0.363686 0.319559,0.363685 0.330729,0.01005 0.330729,0.01005 v -0.264584 z m -78.652908,-5.186937 -0.159852,-0.15985 -0.347266,0.138964 -0.347266,0.138965 0.507118,0.02088 0.507118,0.0209 -0.159852,-0.159853 z m -1.09198,-1.356561 -0.159279,-0.159279 v 0.308679 0.308681 H 13.3306 12.902866 l 0.123126,-0.470834 0.123125,-0.470834 -0.345683,-0.322916 -0.345683,-0.322916 h -0.143459 -0.143459 v 0.95435 0.954349 l 0.406891,-0.156138 0.40689,-0.156139 0.15516,0.404339 0.155159,0.404339 0.390979,-0.558202 0.390979,-0.558202 z M 9.1942708,68.344698 8.73125,68.223699 8.2682292,68.344698 7.8052083,68.4657 H 8.73125 9.6572917 Z M 10.186458,67.997917 10.34998,67.733333 H 10.069782 9.7895833 v 0.264584 0.264583 h 0.1166768 0.1166769 z m 2.998354,-0.807257 -0.281411,-0.807255 -0.114577,0.114576 -0.114577,0.114577 0.173851,0.69268 0.173851,0.692679 h 0.222137 0.222137 z m -1.40488,-2.844459 -0.138265,-0.360312 V 63.47836 62.970833 H 11.361468 11.08127 l 0.19131,0.309547 0.19131,0.309547 -0.440278,-0.168953 -0.440279,-0.168949 v 0.782481 0.782484 l 0.667432,-0.05524 0.667431,-0.05524 z m 2.843333,-2.342668 -0.325694,-0.131774 -0.468056,0.121971 -0.468057,0.12197 0.79375,0.0098 0.79375,0.0098 -0.325693,-0.131776 z M 5.4845921,60.42973 5.3247396,60.269879 4.977474,60.408844 4.6302083,60.547808 5.1373265,60.568684 5.6444444,60.58956 5.4845921,60.429706 Z M 74.083333,95.130419 v -0.119581 l 1.17079,-0.805524 1.170791,-0.805527 0.369359,-0.369358 0.369361,-0.369361 1.380323,-0.69946 1.380321,-0.699464 0.566824,-0.651906 0.566825,-0.651905 h 0.332833 0.33283 l 0.869045,-0.79375 0.869045,-0.79375 h 0.164465 0.164465 l 0.768758,-0.668295 0.768757,-0.668298 0.661458,-0.168219 0.661459,-0.16822 0.345731,-0.486399 0.345733,-0.486402 0.315725,-0.0013 0.315727,-0.0013 0.809279,-0.758632 0.809281,-0.758632 0.556112,-0.176503 0.556114,-0.176504 0.405501,-0.618873 0.405503,-0.618874 0.941083,-0.176548 0.941086,-0.176549 v -0.289571 -0.28957 l 0.46302,-0.351483 0.463021,-0.351483 0.463021,-0.0084 L 95.25,80.9625 V 88.10625 95.25 H 84.666667 74.083333 Z m 0.79375,-6.495002 -0.396875,-0.256479 0.315114,-0.004 0.315116,-0.004 0.16352,0.264584 0.163521,0.264583 -0.08176,-0.004 -0.08176,-0.0041 z m 2.910417,-2.116667 -0.396875,-0.256479 0.315113,-0.004 0.315117,-0.004 0.16352,0.264583 0.16352,0.264583 -0.08176,-0.004 -0.08176,-0.0041 z m 10.533724,-4.14949 0.347266,-0.138964 0.159853,0.159851 0.159851,0.159853 -0.507117,-0.0209 -0.507119,-0.02088 0.347266,-0.138964 z M 83.34375,82.181433 v -0.103984 l 0.410617,-0.15757 0.410618,-0.157567 -0.16165,0.261551 -0.161647,0.261554 h -0.24897 -0.248968 z m 7.342187,-0.07125 0.33073,-0.133453 0.330729,0.133453 0.330729,0.133454 h -0.661458 -0.661459 z m -5.953125,-0.27174 0.463021,-0.120999 0.463021,0.120999 0.463021,0.121002 h -0.926042 -0.926041 z"
       id="path170" />
    <path
       style="fill:#97c2d3;stroke-width:0.264583"
       d="m 28.047752,93.860938 0.0019,-1.389063 0.396438,-5.291667 0.396439,-5.291666 0.395393,-3.626594 0.395393,-3.626591 v -0.6385 -0.638503 L 28.508788,73.056319 27.384309,72.754284 22.224934,71.952673 17.065559,71.151062 14.948892,70.656289 12.832226,70.161512 11.273122,69.998042 9.7140186,69.834569 9.4987398,69.701518 9.2834613,69.56847 9.4107487,69.236765 9.5380358,68.905059 9.0684641,68.899529 8.5988922,68.894 l -0.79375,-0.191495 -0.79375,-0.191492 0.396875,0.268568 0.396875,0.268567 0.4630208,0.004 0.463087,0.0041 v 0.282414 0.282413 L 8.2682292,69.490706 7.8052083,69.360338 6.8791667,69.157892 5.953125,68.955444 5.7272878,69.01498 5.5014503,69.074517 4.9996836,68.915261 4.4979167,68.756006 v -0.360574 -0.360577 l 0.858149,0.246116 0.8581491,0.246112 0.1340384,-0.02148 0.1340385,-0.02148 -0.79375,-0.377576 -0.79375,-0.377574 1.0583333,0.118036 1.0583333,0.118039 -0.2839574,-0.122307 -0.2839575,-0.122306 0.1155502,-0.787292 0.1155499,-0.787291 h 1.9543448 l 1.9543447,-1.1e-5 -0.0041,-0.198437 -0.0041,-0.198438 -0.25648,-0.396875 -0.25648,-0.396875 -0.0041,0.33073 -0.0041,0.330729 H 9.2415177 8.4288691 L 7.9847469,65.168449 7.540625,64.720235 7.9777368,64.88562 8.4148486,65.051009 9.2295197,64.155743 10.044191,63.260481 9.7802798,63.097376 9.5163682,62.934268 l 0.1522225,-0.246301 0.1522225,-0.2463 h 0.2645828 0.264584 l -0.163522,0.264583 -0.163521,0.264583 h 0.308506 0.308505 l -0.16956,-0.441867 -0.169561,-0.441867 0.339691,-0.215541 0.33969,-0.215537 0.79375,-0.03304 0.79375,-0.03304 -1.190625,-0.240266 -1.190625,-0.240263 -0.5953122,0.142002 -0.5953125,0.142002 V 61.136257 60.879098 L 7.6067708,60.995155 6.2177083,61.111215 6.8791667,60.876773 7.540625,60.642331 6.9609274,60.615952 6.3812298,60.589573 6.2259358,60.840845 6.0706415,61.092114 5.1436926,61.008937 4.2167434,60.92576 4.0486497,60.757668 3.8805556,60.589583 H 3.1309027 2.38125 v -0.396875 -0.396875 l -0.7276042,-0.04717 -0.72760413,-0.04717 -0.46302084,0.002 L 0,59.705558 V 29.852779 0 h 12.34812 12.34812 l 3.725318,1.4693053 3.725317,1.4693054 0.529167,0.2235094 0.529166,0.2235097 0.986515,0.433574 0.986518,0.433574 1.725337,0.6494148 1.725335,0.649415 0.463147,0.2579095 0.463148,0.2579095 3.495747,1.366693 3.495746,1.3666931 1.531337,-0.6093362 1.531337,-0.609336 3.571875,-1.5557077 3.571875,-1.5557076 0.79375,-0.3591589 0.79375,-0.3591589 1.702086,-0.6867264 1.702085,-0.6867261 1.7569,-1.1894774 L 65.258593,0 h 15.000491 15.000491 l -0.03227,26.524479 -0.03227,26.524479 -0.133508,0.990066 -0.133509,0.990065 -0.235884,-0.145785 -0.235884,-0.145783 v 0.295812 0.295812 l -0.305464,-0.188785 -0.305464,-0.188788 0.174535,0.282403 0.174535,0.282403 -0.728967,0.565938 -0.728967,0.565936 0.595313,-0.16383 0.595312,-0.163833 v 0.267412 0.267409 l -0.588039,0.41188 -0.588036,0.411877 h 0.341283 0.341286 l -0.167952,0.529166 -0.167952,0.529167 h 0.167775 0.167775 L 94.341611,58.044638 95.25,57.351777 v 0.987475 0.987475 l -0.797198,-0.117004 -0.797194,-0.117004 0.171942,0.549995 0.171942,0.549994 0.625253,0.747906 0.625255,0.747903 -0.0066,5.469805 -0.0066,5.469803 -1.709457,1.288095 -1.70946,1.288095 0.14229,0.23023 0.142291,0.230227 L 91.685959,75.504937 91.269434,75.3451 89.130153,72.663696 86.990872,69.982292 86.55027,69.453125 86.109664,68.923958 84.679232,67.138021 83.248796,65.352083 H 82.960819 82.672841 L 81.699417,66.013542 80.725994,66.675 h -0.125463 -0.125462 l -2.203678,1.282181 -2.20368,1.282182 -2.513542,1.528813 -2.513541,1.528812 -0.595313,0.54242 -0.595312,0.542417 v -0.16578 -0.165777 l -0.659186,0.610912 -0.659185,0.610912 -2.317377,1.623021 -2.317377,1.623023 -0.334069,0.280524 -0.334068,0.280525 -0.302125,-0.186722 -0.302125,-0.186725 0.178692,0.289132 0.178691,0.289129 -1.192519,0.876228 -1.192519,0.876231 -1.468774,1.058334 -1.468773,1.058333 -0.849956,0.729046 -0.849955,0.729046 0.926041,-0.126127 0.926042,-0.126129 3.571875,-0.283766 3.571875,-0.283765 3.175,-0.253133 3.175,-0.253134 3.571875,-0.281538 3.571875,-0.281538 2.462506,-0.188854 2.462506,-0.188857 -0.367008,0.272084 -0.367007,0.272082 -2.027264,1.524082 -2.027264,1.524079 -1.920319,1.411841 -1.920317,1.41184 -4.037041,2.996189 -4.037045,2.99619 1.126628,0.747485 1.126625,0.747487 -20.439063,0.0011 -20.439065,0.0012 0.0019,-1.389062 z m -13.03816,-23.641625 -0.159852,-0.15985 -0.347266,0.138964 -0.347266,0.138965 0.507118,0.02088 0.507118,0.0209 -0.159852,-0.159853 z m -1.09198,-1.356561 -0.159279,-0.159279 v 0.308679 0.308681 H 13.3306 12.902866 l 0.123126,-0.470834 0.123125,-0.470834 -0.345683,-0.322916 -0.345683,-0.322916 h -0.143459 -0.143459 v 0.95435 0.954349 l 0.406891,-0.156138 0.40689,-0.156139 0.15516,0.404339 0.155159,0.404339 0.390979,-0.558202 0.390979,-0.558202 z M 9.1942708,68.344698 8.73125,68.223699 8.2682292,68.344698 7.8052083,68.4657 H 8.73125 9.6572917 Z M 10.186458,67.997917 10.34998,67.733333 H 10.069782 9.7895833 v 0.264584 0.264583 h 0.1166768 0.1166769 z m 2.998354,-0.807257 -0.281411,-0.807255 -0.114577,0.114576 -0.114577,0.114577 0.173851,0.69268 0.173851,0.692679 h 0.222137 0.222137 z m -1.40488,-2.844459 -0.138265,-0.360312 V 63.47836 62.970833 H 11.361468 11.08127 l 0.19131,0.309547 0.19131,0.309547 -0.440278,-0.168953 -0.440279,-0.168949 v 0.782481 0.782484 l 0.667432,-0.05524 0.667431,-0.05524 z m 11.309999,-1.019752 -0.325693,-0.131773 -0.468057,0.12197 -0.468056,0.121971 0.79375,0.0098 0.79375,0.0098 -0.325694,-0.131775 z m -1.730339,-0.250886 -0.159852,-0.15985 -0.347266,0.138964 -0.347266,0.138965 0.507118,0.02088 0.507118,0.02088 -0.159852,-0.159853 z m -1.71428,-0.279958 -0.330729,-0.133453 -0.330729,0.133453 -0.330729,0.133453 h 0.661458 0.661459 z m -1.918229,-0.353938 -0.661458,-0.211836 -0.529167,-0.0078 -0.529166,-0.0078 0.529166,0.227391 0.529167,0.227391 0.661458,-0.0078 0.661459,-0.0078 z m -2.778125,-0.544346 -1.058333,-0.218908 -0.661458,0.0034 -0.661459,0.0034 0.529167,0.227391 0.529167,0.227391 1.190625,-0.01183 1.190625,-0.01183 -1.058334,-0.218908 z M 5.6223958,60.414355 5.2916667,60.280902 4.9609375,60.414355 4.6302083,60.547808 H 5.2916667 5.953125 Z m -1.5875,-0.264583 -0.3307291,-0.133453 -0.3307292,0.133453 -0.3307292,0.133453 H 3.7041667 4.365625 Z M 90.884375,57.94375 91.047895,57.679167 H 90.767699 90.4875 v 0.264583 0.264583 h 0.116676 0.116679 z"
       id="path168" />
    <path
       style="fill:#8cbacf;stroke-width:0.264583"
       d="m 28.047752,93.860938 0.0019,-1.389063 0.396438,-5.291667 0.396439,-5.291666 0.395393,-3.626594 0.395393,-3.626591 V 73.972669 73.30998 l -0.992187,-0.258892 -0.992188,-0.25889 -2.182812,-0.326252 -2.182813,-0.326252 0.0031,-0.284951 0.0031,-0.284951 0.372799,-1.322917 0.3728,-1.322917 0.531052,-1.719791 0.531052,-1.719792 0.260204,-0.8426 0.260204,-0.842603 -0.373446,0.143304 -0.37338,0.143306 V 63.773955 63.46213 l -0.595312,0.05827 -0.595313,0.05827 -0.396875,-0.148217 -0.396875,-0.148217 -2.045882,-0.30648 -2.045882,-0.30648 -0.246624,0.152424 -0.246624,0.152421 -0.08883,-0.266491 -0.08883,-0.266491 -1.058247,-0.06589 -1.058247,-0.06589 -0.14341,-0.191161 -0.143409,-0.191159 -1.576382,-0.07343 -1.576383,-0.07342 L 12.435417,61.630616 12.303125,61.481023 7.6729167,60.758374 3.0427083,60.035726 1.5213542,59.749066 0,59.462403 V 29.7312 0 h 12.34812 12.34812 l 3.725318,1.4738945 3.725317,1.4738946 0.835451,0.3790018 0.835448,0.3790022 2.43127,0.9389567 2.431267,0.9389568 0.437448,0.2418601 0.437449,0.2418599 3.491969,1.3651875 3.491965,1.3651873 L 48.86801,7.852314 51.196875,6.9068265 56.620833,4.5592717 62.044792,2.2117166 63.632292,1.106204 65.219792,6.9136154e-4 80.234896,3.4568077e-4 95.25,0 v 25.783852 25.783852 l -0.293518,1.402086 -0.293518,1.402085 -0.557279,0.606944 -0.557279,0.606943 -1.52754,1.112848 -1.527537,1.112848 0.08436,0.264584 0.08437,0.264583 1.34748,0.36354 1.347481,0.363538 0.15022,0.598519 0.150217,0.598519 0.149236,1.683777 0.149235,1.683774 0.391819,4.085217 0.391819,4.085217 0.250378,0.301688 0.25038,0.301689 -0.722767,0.665027 -0.722765,0.665025 -0.989611,0.732192 -0.989608,0.732192 0.143455,0.232116 0.143457,0.232117 -0.344472,-0.140687 -0.344471,-0.140687 -4.101042,-5.146575 -4.101042,-5.146574 -0.07022,-0.0013 -0.07022,-0.0013 -3.501652,2.001242 -3.50165,2.001243 -2.671558,1.636778 -2.671559,1.636779 -3.182954,2.352212 -3.18295,2.352209 -0.756669,0.425916 -0.756671,0.425913 -0.267986,0.316473 -0.267986,0.316474 -3.439583,2.561878 -3.439584,2.561878 2.248959,-0.178752 2.248958,-0.178753 9.789583,-0.785828 9.789584,-0.785828 1.852083,-0.164222 1.852083,-0.164219 -2.027565,1.55774 -2.027566,1.557742 -2.338059,1.706639 -2.33806,1.70664 -3.90475,2.902553 -3.904752,2.902556 1.126627,0.747485 1.126625,0.747487 -20.439062,0.0011 -20.439063,0.0011 0.0019,-1.389062 z M 82.814583,64.29375 v -0.529167 h -0.292891 -0.292891 l 0.147124,0.3834 0.147125,0.3834 -0.449546,-0.143775 -0.449546,-0.143774 0.396875,0.285488 0.396875,0.28549 0.198438,0.004 0.198437,0.004 v -0.529167 z"
       id="path166" />
    <path
       style="fill:#71b5ce;stroke-width:0.264583"
       d="m 28.047752,93.860938 0.0019,-1.389063 0.396438,-5.291667 0.396439,-5.291666 0.395393,-3.626594 0.395393,-3.626591 v -0.655058 -0.655055 l -0.564126,-0.179049 -0.564126,-0.179046 0.254672,-0.169511 0.25467,-0.169513 0.05795,-1.389062 0.0579,-1.389063 h -0.277664 -0.277662 v 0.89377 0.893771 l -0.595313,0.423637 -0.595312,0.423641 0.463021,-0.155091 0.463021,-0.155094 v 0.292892 0.292891 h -0.749652 -0.749655 l -0.199901,-0.198438 -0.199899,-0.198437 -0.571801,-0.0209 -0.571735,-0.02088 -0.859896,-0.04526 -0.859895,-0.04525 v -0.280199 -0.280196 l 0.239908,0.148269 0.239909,0.148273 -0.138476,-0.529532 -0.138476,-0.529532 h 0.273394 0.273393 l 0.133452,0.33073 0.133453,0.330729 0.02089,-0.542396 0.02089,-0.542396 0.230424,-0.251354 0.230423,-0.251354 0.177056,-0.749774 0.177057,-0.749774 -0.235183,0.145352 -0.235183,0.145351 -0.02245,-0.789402 -0.02244,-0.789401 0.199147,0.123079 0.199148,0.123079 -0.103164,-0.84592 -0.103163,-0.845924 0.306281,0.396875 0.306282,0.396875 -0.130568,-0.595677 -0.130569,-0.595678 0.221626,0.136972 0.221627,0.136972 0.166189,-0.268898 0.166189,-0.268899 h 0.529165 0.529167 l -0.163521,-0.264583 -0.16352,-0.264584 h 0.280196 0.280199 v 0.280199 0.280197 l 0.292831,-0.180978 0.292833,-0.18098 -0.358979,-0.231042 -0.358976,-0.23104 -0.705419,0.147971 -0.70542,0.147974 -0.237186,-0.423828 -0.237187,-0.423831 -3.973148,-0.64162 L 17.55287,62.459737 17.176954,62.322673 16.801042,62.185611 9.2604167,60.998015 1.7197917,59.81042 0.85989583,59.637761 0,59.465104 V 29.732552 0 h 12.350267 12.350267 l 7.030461,2.8220651 7.030463,2.8220655 0.396875,0.2116481 0.396875,0.2116479 3.502041,1.369201 3.502041,1.369201 3.244834,-1.3450837 3.244834,-1.3450834 4.497917,-1.9511212 4.497917,-1.9511209 1.5875,-1.106364 1.5875,-1.10636403846 L 80.234896,3.4568077e-4 95.25,0 l -0.0254,25.995312 -0.0254,25.995313 -0.305332,1.30746 -0.305329,1.307459 -1.455208,1.17103 -1.455209,1.17103 -0.727604,0.632407 -0.727604,0.632405 v 0.262541 0.262543 l 0.463021,0.0186 0.463021,0.0186 -0.396875,0.179843 -0.396875,0.17984 -0.03911,0.477216 -0.03911,0.477215 0.435988,-0.08396 0.435989,-0.08396 5.29e-4,-0.393253 5.29e-4,-0.39325 0.925618,0.08844 0.925621,0.08844 0.167998,0.176142 0.167999,0.176141 0.566664,5.953125 0.566661,5.953125 0.116824,0.718613 0.116821,0.718614 -1.551596,1.193924 -1.551596,1.193925 -1.120809,-1.484503 -1.120812,-1.484503 -0.428035,-0.440241 -0.428035,-0.440243 -1.5875,-2.072354 -1.5875,-2.072351 -0.992188,-1.172679 -0.992187,-1.172678 V 64.82888 64.602439 l 0.311427,-0.103809 0.311428,-0.103809 -0.194752,-0.315116 -0.194749,-0.315114 h -0.59973 -0.599723 l -0.602438,0.641266 -0.602435,0.641262 0.754753,0.102119 0.754753,0.102116 -0.529166,0.235619 -0.529167,0.23562 -3.042708,1.751033 -3.042709,1.751034 -2.116666,1.328264 -2.116667,1.328261 -3.571875,2.674882 -3.571875,2.674882 -0.661458,0.343995 -0.661459,0.343993 -0.187018,0.287263 -0.18702,0.287264 -1.130031,0.771501 -1.130027,0.771501 -2.291673,1.740591 -2.291672,1.740593 0.499866,0.312171 0.499867,0.312172 V 83.9142 83.686407 l 2.182813,-0.168146 2.182812,-0.168148 3.307292,-0.274886 3.307291,-0.274886 3.571875,-0.255098 3.571875,-0.255098 3.307292,-0.261948 3.307292,-0.261948 0.926041,-0.161571 0.926042,-0.16157 -2.027566,1.545637 -2.027565,1.545638 -2.33806,1.706639 -2.338059,1.706639 -3.90475,2.902554 -3.904753,2.902556 1.126628,0.747484 1.126625,0.747488 -20.439062,0.0011 -20.439275,0.0012 0.0019,-1.389062 z m -0.519473,-22.621875 0.01161,-0.727605 0.374791,-1.052425 0.374793,-1.052425 -0.55217,-0.587759 -0.552172,-0.587758 0.159766,-0.416338 0.159763,-0.416338 0.469022,-0.145605 0.469021,-0.145606 0.452562,-0.240977 0.452559,-0.24098 0.372565,0.142965 0.372563,0.142968 0.137409,-0.525455 0.137408,-0.525454 -0.481182,0.03625 -0.481181,0.03625 0.129577,0.209661 0.129574,0.209658 H 29.384366 29.104167 V 65.0875 64.822917 h -0.246753 -0.246753 l -0.169172,0.533008 -0.16917,0.533009 -0.221657,-0.136991 -0.22166,-0.136993 -0.420751,0.161456 -0.420751,0.16146 v 2.22065 2.220651 h -0.264583 -0.264584 v 0.79375 0.79375 h 0.529167 0.529167 l 0.01161,-0.727604 z m 2.338946,-3.042709 -0.03069,-1.918229 -0.115771,0.435867 -0.115771,0.435869 -0.514995,0.134676 -0.514996,0.134672 v 0.490292 0.490294 l 0.529167,0.33047 0.529166,0.33047 v 0.526923 0.526925 h 0.132292 0.132292 z m 56.188504,-5.622396 -0.06615,-0.264583 H 85.54861 85.10764 l -0.117666,0.352994 -0.117663,0.352991 0.624782,-0.08841 0.624782,-0.08841 z"
       id="path164" />
    <path
       style="fill:#41ddcb;stroke-width:0.264583"
       d="m 28.045833,93.774178 v -1.475822 l 0.263142,-3.220532 0.263138,-3.220532 0.278773,-3.175 0.278773,-3.175 0.249222,-2.513542 0.249222,-2.513542 0.292883,-2.778125 0.292886,-2.778125 0.345532,-2.116666 0.34553,-2.116667 -0.07193,-0.07554 -0.07193,-0.07554 L 27.485221,64.019224 24.209375,63.498907 22.886458,63.249011 21.563542,62.999117 16.66875,62.180653 11.773958,61.362185 10.451042,61.123581 9.128125,60.884977 7.6729167,60.624281 6.2177083,60.363584 3.96875,60.04524 1.7197917,59.726893 0.92604167,59.546114 0.13229167,59.365335 0.06500565,29.682668 -0.00228036,0 12.103547,0.00385055 l 12.105828,0.00385056 1.058333,0.37301229 1.058334,0.37301229 1.984375,0.83440321 1.984375,0.8344032 3.042708,1.1848844 3.042708,1.1848843 1.078545,0.4885108 1.078545,0.4885108 2.890205,1.100772 2.890205,1.1007719 1.217772,0.5394447 1.217773,0.5394449 0.798894,-0.4131233 0.798891,-0.4131233 2.084364,-0.8279979 2.084363,-0.827998 1.32293,-0.6170813 1.32293,-0.6170814 L 58.582362,3.8634543 61.999098,2.393558 63.782866,1.196779 65.566637,0 H 80.408317 95.25 v 25.43564 25.435641 l -0.308618,1.674929 -0.308618,1.674929 -0.815861,0.76353 -0.815861,0.763529 -4.365625,3.293874 -4.365625,3.293872 -1.5875,1.113883 -1.5875,1.113883 -1.245741,0.989499 -1.24574,0.989499 -2.264997,1.5875 -2.264998,1.5875 -2.442387,1.77233 -2.442387,1.772328 -2.622471,1.931839 -2.622471,1.931837 -1.793065,1.322916 -1.793065,1.322917 -2.368577,1.719792 -2.368579,1.719791 -0.132231,0.446969 -0.132231,0.446971 2.784042,2.794175 2.784041,2.794177 h 0.220493 0.220493 l 0.869101,0.760346 0.869103,0.760347 2.885461,2.017778 L 68.87405,95.25 H 48.45994 28.045833 Z"
       id="path162" />
    <path
       style="fill:#33d7cc;stroke-width:0.264583"
       d="m 28.045833,94.303345 v -0.946656 l 0.263711,-3.220532 0.26371,-3.220532 0.276944,-3.704167 0.276942,-3.704166 0.261681,-1.984375 0.261679,-1.984375 0.524621,-4.894792 0.524621,-4.894792 0.128032,-0.574339 0.128029,-0.574339 -0.727379,-0.1446 L 29.501042,64.311083 26.855208,63.903759 24.209375,63.496436 22.886458,63.247778 21.563542,62.999117 16.66875,62.180653 11.773958,61.362185 10.451042,61.123581 9.128125,60.884977 7.6729167,60.624281 6.2177083,60.363584 3.96875,60.04524 1.7197917,59.726893 0.92604167,59.546114 0.13229167,59.365335 0.06500565,29.682668 -0.00228036,0 12.103547,0.00385055 l 12.105828,0.00385056 1.058333,0.37301229 1.058334,0.37301229 1.984375,0.83440321 1.984375,0.8344032 3.042708,1.1848844 3.042708,1.1848843 1.078545,0.4885108 1.078545,0.4885108 2.890205,1.100772 2.890205,1.1007719 1.217772,0.5394447 1.217773,0.5394449 0.798894,-0.4131233 0.798891,-0.4131233 2.084364,-0.8279979 2.084363,-0.827998 1.32293,-0.6170813 1.32293,-0.6170814 L 58.582362,3.8634543 61.999098,2.393558 63.782866,1.196779 65.566637,0 H 80.408317 95.25 V 15.08125 30.1625 l -0.727604,-0.01593 -0.727604,-0.01593 -5.688542,-0.660188 -5.688542,-0.660188 -1.322916,-0.108689 -1.322917,-0.108688 -3.54833,-0.418645 -3.548327,-0.418645 -0.155839,0.249555 -0.155837,0.249555 -1.322917,1.524649 -1.322917,1.52465 -1.514922,1.634353 -1.514919,1.634352 -0.577324,0.771464 -0.577321,0.771465 -0.62026,0.661458 -0.62026,0.661458 -1.017563,1.190625 -1.017567,1.190625 -4.473599,5.027084 -4.473601,5.027083 -3.041124,3.470066 -3.041123,3.470068 -0.507931,0.630974 -0.507929,0.630975 -1.74103,1.984375 -1.741027,1.984375 -0.132291,0.132292 -0.132292,0.132292 -2.050521,2.287711 -2.050521,2.287712 v 0.140878 0.140877 l 3.079123,4.318286 3.079126,4.318286 0.228166,0.08819 0.228169,0.0882 v 0.251788 0.251791 l 1.576522,2.173557 1.576523,2.173558 0.223448,0.264583 0.223449,0.264584 1.370785,2.032283 1.370785,2.032283 0.265123,0.163854 0.26512,0.163853 1.19433,-0.699923 1.194331,-0.699924 v -0.258844 -0.258842 l 0.370364,0.08555 0.370361,0.08555 2.740975,2.648746 2.740972,2.648747 1.71731,1.25681 1.71731,1.256808 2.376085,1.716842 2.376086,1.716839 H 48.347439 28.045833 v -0.946656 z"
       id="path160" />
    <path
       style="fill:#00a1e6;stroke-width:0.264583"
       d="m 28.195286,93.067188 0.15254,-2.182813 0.219834,-3.042708 0.219835,-3.042709 0.814218,-7.805208 0.814218,-7.805208 0.281938,-1.719792 0.281934,-1.719792 0.08347,-0.589243 0.08347,-0.58924 -0.425971,-0.130564 -0.425971,-0.130564 -5.291667,-0.806421 -5.291667,-0.806418 -3.571875,-0.640001 -3.571875,-0.64 -0.79375,-0.120618 -0.79375,-0.120616 L 5.953125,60.33984 0.92604167,59.504405 0.46302083,59.367706 0,59.231006 V 29.615503 0 l 12.104688,-0.0014226 12.104687,-0.00142259 2.116667,0.81494344 2.116666,0.81494345 1.852084,0.8118424 1.852083,0.8118426 0.529167,0.2007168 0.529166,0.2007169 2.778125,1.1163501 2.778125,1.1163504 3.704167,1.463951 3.704167,1.4639507 0.529166,-0.00646 0.529167,-0.00646 2.910417,-1.2367739 2.910416,-1.2367739 1.058334,-0.4982316 1.058333,-0.4982315 3.433411,-1.475354 3.43341,-1.4753541 L 63.821387,1.1895625 65.610325,0 H 80.430161 95.25 v 14.948958 14.948959 h -0.346662 -0.34666 l -10.30282,-1.057458 -10.302816,-1.05746 -0.463021,-7.94e-4 -0.463021,-9.55e-4 -0.03603,-0.727604 -0.03603,-0.727604 -0.112543,0.579133 -0.112541,0.57913 -2.695699,3.105172 -2.695697,3.105168 -9.336058,10.603198 -9.336058,10.603199 -3.141377,3.571875 -3.141377,3.571875 -2.168824,2.451057 -2.168824,2.451058 0.465532,0.723942 0.465532,0.723943 1.989418,2.778125 1.989415,2.778125 0.972854,1.322916 0.972852,1.322917 3.230917,4.5584 3.230914,4.558401 0.255696,0.15803 0.255696,0.158028 1.599311,-0.898295 1.599311,-0.898295 1.895441,1.954779 1.895443,1.954776 2.38501,1.923846 2.38501,1.923847 1.719791,1.148431 1.719792,1.148432 0.08819,0.216789 0.0882,0.216789 h 0.359211 0.359212 L 68.13021,94.985417 68.293729,95.25 H 48.168237 28.042746 Z M 73.200228,25.069271 73.066775,24.738542 V 25.4 26.061458 L 73.200228,25.730729 73.333681,25.4 Z m 0.264584,-1.5875 -0.133454,-0.330729 v 0.661458 0.661458 l 0.133454,-0.330729 0.133453,-0.330729 z m 0.449619,-1.389063 0.152294,-0.396875 h -0.256278 -0.25628 v 0.396875 0.396875 h 0.103984 0.103983 z M 74.6125,18.520833 V 17.991667 H 74.511067 74.409633 L 74.271254,18.520833 74.132874,19.05 h 0.239813 0.239813 z m 0.18074,-1.901692 -0.138965,-0.347266 -0.02088,0.507118 -0.0209,0.507118 0.159854,-0.159852 0.15985,-0.159853 -0.138964,-0.347265 z m 0.259072,-1.604037 -0.133454,-0.330729 v 0.661458 0.661459 l 0.133454,-0.330729 0.133453,-0.33073 z M 88.370833,12.31874 V 12.202063 L 88.10625,12.038542 87.841667,11.87502 v 0.280198 0.280199 h 0.264583 0.264583 z M 87.3125,11.52499 V 11.408313 L 87.047917,11.244792 86.783333,11.08127 v 0.280198 0.280199 h 0.264584 0.264583 z"
       id="path158" />
    <path
       style="fill:#01ccb9;stroke-width:0.264583"
       d="m 28.195286,93.067188 0.15254,-2.182813 0.219834,-3.042708 0.219835,-3.042709 0.814218,-7.805208 0.814218,-7.805208 0.295275,-1.719792 0.295275,-1.719792 0.03158,-0.469572 0.03158,-0.469571 0.274035,0.100303 0.274031,0.100306 1.455209,0.470421 1.455208,0.470424 0.264583,0.197634 0.264584,0.197633 1.526034,0.437568 1.526035,0.437565 0.7844,1.115729 0.784402,1.115727 0.242909,0.291362 0.242908,0.291362 2.585821,3.677388 2.585823,3.677388 1.475417,2.044266 1.475417,2.044266 1.5875,2.241069 1.5875,2.241068 0.264584,0.01085 0.264583,0.01082 1.538803,-0.876535 1.538804,-0.876535 1.89702,1.956403 1.89702,1.956406 2.38501,1.923846 2.38501,1.923846 1.719791,1.148432 1.719792,1.148432 0.08819,0.216789 0.0882,0.216789 h 0.359211 0.359212 l 0.16352,0.264583 0.163521,0.264584 H 48.168237 28.042746 l 0.15254,-2.182813 z M 29.36875,64.031127 v -0.297772 l 0.305464,0.188785 0.305464,0.188788 L 29.792493,63.80806 29.605311,63.505191 24.539143,58.541658 19.472974,53.578125 14.30055,48.507912 9.128125,43.437702 7.2760417,41.667557 5.4239583,39.897415 2.7119792,37.24117 0,34.584926 V 32.360214 30.135499 L 0.9921875,29.7224 1.984375,29.309301 l 4.1010417,-1.848102 4.1010413,-1.848101 1.719792,-0.798761 1.719792,-0.798761 3.042708,-1.391414 3.042708,-1.391415 1.984375,-0.926058 1.984375,-0.926057 5.423959,-2.528022 5.423958,-2.528022 3.182993,-1.438001 3.182993,-1.438002 2.446597,-1.149106 2.446597,-1.1491065 -0.133533,-0.3479752 -0.13353,-0.347975 0.538165,0.2880175 0.538168,0.2880174 2.196357,-0.9433536 2.196354,-0.9433536 h 0.154297 0.154294 L 53.513593,6.1008257 55.729307,5.0579012 57.034967,4.5400955 58.340625,4.02229 60.391146,3.0845313 62.441667,2.1467726 v 0.3341083 0.3341082 l 0.727604,0.6153793 0.727604,0.6153796 1.860481,1.7474385 1.860479,1.7474385 1.726522,1.5875 1.72652,1.5875 1.354842,1.256771 1.354841,1.256771 h 0.185907 0.185907 L 79.541812,10.521106 84.93125,7.8130445 V 6.5577098 5.3023751 L 85.356853,4.2386874 85.782457,3.175 h 0.235855 0.235855 V 2.765434 2.355868 L 86.981771,1.6912752 87.709375,1.0266824 88.767708,0.51915198 89.826042,0.01162156 91.474332,0.00581078 93.122626,0 94.186312,0.42560338 95.25,0.85120676 V 15.374562 29.897917 h -0.346662 -0.34666 L 84.253858,28.840459 73.951042,27.782999 73.488021,27.782205 73.025,27.78125 72.98536,26.921354 72.94572,26.061458 72.835497,26.789062 72.725274,27.516667 H 72.491407 72.257544 L 72.04596,27.167761 71.834375,26.818855 70.511458,25.92317 69.188542,25.027486 66.542708,23.114062 63.896875,21.200638 62.441667,20.111579 60.986458,19.02252 l -4.11127,-2.962823 -4.111268,-2.962822 -1.180399,-0.858093 -1.180396,-0.858093 -1.54146,-1.075903 -1.541462,-1.0759037 -0.552434,0.081913 -0.552432,0.081913 -1.007499,3.8364587 -1.007499,3.836458 -0.263324,0.529167 -0.263326,0.529166 -1.467287,5.423959 -1.467286,5.423958 -0.07023,0.264583 -0.07023,0.264584 -0.156257,0.264583 -0.15626,0.264583 -1.274818,4.894792 -1.274816,4.894792 -0.169423,0.132291 -0.169423,0.132292 -1.276739,4.894792 -1.276737,4.894791 -0.221882,0.288928 -0.221882,0.288928 0.152606,0.152606 0.152607,0.152606 -0.403516,0.881383 -0.403519,0.881383 -1.211683,4.497916 -1.211681,4.497917 -0.253608,0.529167 -0.253609,0.529166 -0.09276,0.79375 -0.09276,0.79375 -0.706872,0.08372 -0.706871,0.08372 z m 43.839604,-39.089112 -0.121971,-0.468057 -0.0098,0.79375 -0.0098,0.79375 0.131776,-0.325693 0.131773,-0.325694 -0.12197,-0.468056 z m 0.263615,-1.857119 -0.121002,-0.463021 v 0.926042 0.926041 l 0.121002,-0.463021 0.120999,-0.46302 z M 73.91118,22.101182 74.060222,21.71278 73.807196,21.5564 73.554167,21.40002 v 0.544782 0.544781 h 0.103984 0.103983 z m 0.0828,-2.323578 -0.133453,-0.330729 v 0.661458 0.661459 l 0.133453,-0.33073 0.133453,-0.330729 z M 74.6125,18.520833 V 17.991667 H 74.347917 74.083333 V 18.520833 19.05 h 0.264584 0.264583 z m 0.260533,-1.785937 0.004,-0.330729 H 74.6125 74.347917 l 0.004,0.727604 0.004,0.727604 0.256487,-0.396875 0.256479,-0.396875 0.004,-0.330729 z m 0.268634,-1.552584 v -0.661458 l -0.264584,0.163521 -0.264583,0.163521 v 0.661459 0.661458 l 0.264583,-0.163521 0.264584,-0.163522 z M 88.370833,12.31874 V 12.202063 L 88.10625,12.038542 87.841667,11.87502 v 0.280198 0.280199 h 0.264583 0.264583 z M 87.3125,11.52499 V 11.408313 L 87.047917,11.244792 86.783333,11.08127 v 0.280198 0.280199 h 0.264584 0.264583 z m -64.607943,51.529687 0.347266,-0.138964 0.159852,0.15985 0.159853,0.159854 -0.507118,-0.02088 -0.507118,-0.02088 0.347265,-0.138964 z m -6.229209,-1.060947 0.468056,-0.121971 0.325694,0.131774 0.325694,0.131775 -0.79375,-0.0098 -0.79375,-0.0098 0.468056,-0.121971 z m -7.2645407,-1.320303 0.3472656,-0.138964 0.1598525,0.15985 0.1598523,0.159854 -0.5071179,-0.02088 -0.5071181,-0.02088 0.3472656,-0.138964 z M 7.358724,60.408844 7.7059896,60.269879 7.8658421,60.42973 8.0256944,60.589583 7.5185765,60.568694 7.0114583,60.547808 Z M 3.6380208,59.885188 3.96875,59.751735 4.2994792,59.885188 4.6302083,60.018642 H 3.96875 3.3072917 Z M 0.74414062,59.35051 1.0914062,59.211546 1.2512587,59.371397 1.4111111,59.53125 0.90399306,59.510361 0.396875,59.489475 Z M 34.925,4.4979167 34.528125,4.2414365 l 0.315113,-0.00405 0.315117,-0.00405 0.16352,0.2645834 0.16352,0.2645833 -0.08176,-0.00405 -0.08176,-0.00405 z M 28.575,1.8520833 28.178125,1.595603 h 0.264583 0.264584 l 0.396875,0.2564803 0.396875,0.2564804 H 29.236458 28.971875 Z M 26.9875,1.3229167 26.590625,1.0664363 h 0.264583 0.264584 l 0.396875,0.2564804 0.396875,0.2564803 h -0.264584 -0.264583 z"
       id="path156" />
    <path
       style="fill:#0088ce;stroke-width:0.264583"
       d="m 41.941274,93.331771 -0.740241,-1.918229 -2.167731,-5.55625 -2.167729,-5.55625 -1.270264,-3.307292 -1.270268,-3.307292 -1.157695,-2.942309 -1.157695,-2.942307 -0.521501,-1.515777 -0.521505,-1.515774 0.325533,0.120065 0.32553,0.120068 1.455209,0.470421 1.455208,0.470424 0.264583,0.197634 0.264584,0.197633 1.526034,0.437568 1.526035,0.437565 0.7844,1.115729 0.784402,1.115727 0.242909,0.291362 0.242908,0.291362 2.587117,3.677388 2.587115,3.677388 1.474123,2.053561 1.474123,2.053563 1.653646,2.273128 1.653646,2.273131 v 1.386456 1.386457 L 51.420797,92.03346 51.247847,95.25 H 46.964682 42.681517 Z M 29.36875,64.031127 v -0.297772 l 0.305464,0.188785 0.305464,0.188788 L 29.792493,63.80806 29.605311,63.505191 24.539143,58.541658 19.472974,53.578125 14.30055,48.507912 9.128125,43.437702 7.2760417,41.667557 5.4239583,39.897415 2.7119792,37.24117 0,34.584926 V 32.360214 30.135499 L 0.9921875,29.7224 1.984375,29.309301 l 4.1010417,-1.848102 4.1010413,-1.848101 1.719792,-0.798761 1.719792,-0.798761 3.042708,-1.391414 3.042708,-1.391415 1.984375,-0.926058 1.984375,-0.926057 5.423959,-2.528022 5.423958,-2.528022 3.182993,-1.438001 3.182993,-1.438002 2.446597,-1.149106 2.446597,-1.1491065 -0.133533,-0.3479752 -0.13353,-0.347975 0.538165,0.2880175 0.538168,0.2880174 2.196357,-0.9433536 2.196354,-0.9433536 h 0.154297 0.154294 L 53.513593,6.1008257 55.729307,5.0579012 57.034967,4.5400955 58.340625,4.02229 60.391146,3.0845313 62.441667,2.1467726 v 0.3341083 0.3341082 l 0.727604,0.6153793 0.727604,0.6153796 1.860481,1.7474385 1.860479,1.7474385 1.726522,1.5875 1.72652,1.5875 1.354842,1.256771 1.354841,1.256771 h 0.185907 0.185907 L 79.541812,10.521106 84.93125,7.8130445 V 6.5577098 5.3023751 L 85.356853,4.2386874 85.782457,3.175 h 0.235855 0.235855 V 2.765434 2.355868 L 86.981771,1.6912752 87.709375,1.0266824 88.767708,0.51915198 89.826042,0.01162156 91.474332,0.00581078 93.122626,0 94.186312,0.42560338 95.25,0.85120676 V 6.388131 11.925055 l -1.256771,0.545133 -1.256771,0.545133 -1.728753,-0.118242 -1.72875,-0.118241 -1.104144,-0.697015 -1.104143,-0.697015 -0.271491,-0.466883 -0.271492,-0.466883 -0.368824,-0.469119 -0.368824,-0.4691187 -3.538246,1.6332307 -3.538249,1.63323 -1.984375,0.979861 -1.984375,0.979861 -1.020403,6.322694 -1.020403,6.322694 -0.09576,0.101923 -0.09575,0.101925 -0.603634,-0.555035 -0.603631,-0.555032 -3.042708,-2.17412 -3.042708,-2.17412 -0.807953,-0.553612 -0.807956,-0.553611 -1.308711,-1.000673 -1.308714,-1.000673 -4.11127,-2.962236 -4.111268,-2.962236 -1.180399,-0.858093 -1.180396,-0.858093 -1.54146,-1.075903 -1.541462,-1.0759037 -0.552434,0.081913 -0.552432,0.081913 -1.007499,3.8364587 -1.007499,3.836458 -0.263324,0.529167 -0.263326,0.529166 -1.467287,5.423959 -1.467286,5.423958 -0.07023,0.264583 -0.07023,0.264584 -0.156257,0.264583 -0.15626,0.264583 -1.274818,4.894792 -1.274816,4.894792 -0.169423,0.132291 -0.169423,0.132292 -1.276739,4.894792 -1.276737,4.894791 -0.221882,0.288928 -0.221882,0.288928 0.152606,0.152606 0.152607,0.152606 -0.403516,0.881383 -0.403519,0.881383 -1.211683,4.497916 -1.211681,4.497917 -0.253608,0.529167 -0.253609,0.529166 -0.09276,0.79375 -0.09276,0.79375 -0.706872,0.08372 -0.706871,0.08372 z m -6.664193,-0.97645 0.347266,-0.138964 0.159852,0.15985 0.159853,0.159854 -0.507118,-0.02088 -0.507118,-0.02088 0.347265,-0.138964 z m -6.229209,-1.060947 0.468056,-0.121971 0.325694,0.131774 0.325694,0.131775 -0.79375,-0.0098 -0.79375,-0.0098 0.468056,-0.121971 z m -7.2645407,-1.320303 0.3472656,-0.138964 0.1598525,0.15985 0.1598523,0.159854 -0.5071179,-0.02088 -0.5071181,-0.02088 0.3472656,-0.138964 z M 7.358724,60.408844 7.7059896,60.269879 7.8658421,60.42973 8.0256944,60.589583 7.5185765,60.568694 7.0114583,60.547808 Z M 3.6380208,59.885188 3.96875,59.751735 4.2994792,59.885188 4.6302083,60.018642 H 3.96875 3.3072917 Z M 0.74414062,59.35051 1.0914062,59.211546 1.2512587,59.371397 1.4111111,59.53125 0.90399306,59.510361 0.396875,59.489475 Z M 34.925,4.4979167 34.528125,4.2414365 l 0.315113,-0.00405 0.315117,-0.00405 0.16352,0.2645834 0.16352,0.2645833 -0.08176,-0.00405 -0.08176,-0.00405 z M 28.575,1.8520833 28.178125,1.595603 h 0.264583 0.264584 l 0.396875,0.2564803 0.396875,0.2564804 H 29.236458 28.971875 Z M 26.9875,1.3229167 26.590625,1.0664363 h 0.264583 0.264584 l 0.396875,0.2564804 0.396875,0.2564803 h -0.264584 -0.264583 z"
       id="path154" />
    <path
       style="fill:#066891;stroke-width:0.264583"
       d="m 74.396698,13.949404 -0.280593,-0.338096 3.277512,-1.654183 3.277511,-1.654184 0.873291,-0.4120101 0.873289,-0.4120102 1.322917,-0.7214915 1.322917,-0.7214912 0.178059,-1.7843519 0.178059,-1.7843516 0.48019,-0.7122631 0.48019,-0.7122631 0.270163,-0.5182516 0.270166,-0.5182516 1.055963,-0.7384799 1.05596,-0.73847974 0.926041,-0.15591478 0.926042,-0.15591479 0.661458,-0.022204 0.661459,-0.022204 0.695661,0.15476594 0.695658,0.15476593 0.825696,0.42698302 L 95.25,1.3365057 v 5.2561437 5.2561436 l -1.002091,0.400958 -1.002093,0.400958 -1.199534,0.179881 -1.199531,0.179881 -1.128035,-0.303748 -1.128032,-0.303748 -1.472565,-1.426292 -1.472568,-1.4262923 -2.503853,1.1779303 -2.503855,1.177929 h -0.08926 -0.08926 l -2.49714,1.190625 -2.497143,1.190625 h -0.393872 -0.393872 z"
       id="path152" />
    <path
       style="fill:#00597b;stroke-width:0.264583"
       d="m 75.141667,13.626042 0.329377,-0.396875 h 0.323471 0.323469 l 0.440939,-0.487232 0.440939,-0.487231 1.437074,-0.488476 1.437071,-0.488476 -0.132826,-0.214917 -0.132826,-0.214918 h 0.570103 0.570105 l 0.829726,-0.463021 0.829728,-0.463021 0.367466,-0.3437221 0.367467,-0.343722 0.748334,-0.1496669 0.748334,-0.1496668 0.419344,-0.4633712 0.419346,-0.4633711 0.02304,-1.2921983 0.02302,-1.2921983 0.393626,-0.9921875 0.393626,-0.9921875 h 0.235854 0.235855 V 3.0864434 2.7333035 l 0.770118,-0.6861784 0.770117,-0.6861783 0.783839,-0.40533781 0.783836,-0.40533783 0.166235,0.16623527 0.166235,0.1662353 0.677389,-0.36252687 0.677386,-0.36252689 0.509249,0.31803101 0.509249,0.31803102 h 0.545896 0.545896 L 94.469389,1.1974195 95.25,1.6010891 v 4.9778191 4.9778188 l -0.673907,0.307053 -0.67391,0.307053 H 93.51776 93.133333 v 0.232289 0.23229 l -2.016614,-0.04877 -2.016615,-0.04877 -0.327657,-0.448098 -0.32766,-0.448099 h -0.254249 -0.254251 l -1.01432,-1.1666 -1.014322,-1.1665999 -0.422051,0.1440696 -0.422052,0.1440693 -3.003505,1.419405 -3.003505,1.419406 h -0.486609 -0.486611 l -0.177054,0.28648 -0.177054,0.28648 -1.183412,0.50727 -1.183413,0.50727 H 75.087334 74.81229 Z"
       id="path150" />
  </g>
</svg>
